<svg viewBox="0 0 200 200" xmlns="http://www.w3.org/2000/svg">
  <title>Mashvini</title>
  <circle cx="100" cy="100" r="100" fill="#016630"></circle>
  <g transform="translate(100, 100) scale(0.75) translate(-105, -104)">
    <path stroke="#FFFFFF" stroke-width="8" stroke-linecap="round" stroke-linejoin="round" fill="none" d="M 32 45 L 50 45 L 68 112 C 70 118 75 122 82 122 L 152 122 C 158 122 163 118 165 112 L 178 62 L 52 62"></path>
    <path stroke="#FFFFFF" stroke-width="6" stroke-linecap="round" fill="none" d="M 72 134 L 155 134"></path>
    <circle cx="82" cy="154" r="9" fill="#FFFFFF"></circle>
    <circle cx="145" cy="154" r="9" fill="#FFFFFF"></circle>
    <path fill="#FFFFFF" d="M 112 68 C 122 68 129 78 127 92 C 125 105 116 114 112 117 C 108 114 99 105 97 92 C 95 78 102 68 112 68 Z"></path>
  </g>
</svg>
